<svg xmlns="http://www.w3.org/2000/svg" viewBox="0 0 512 512"><!--!Font Awesome Free 6.6.0 by @fontawesome - https://fontawesome.com License - https://fontawesome.com/license/free Copyright 2024 Fonticons, Inc.--><path d="M403.5 455.4A246.2 246.2 0 0 1 256 504C118.8 504 8 393 8 256 8 118.8 119 8 256 8a247.4 247.4 0 0 1 165.7 63.5 3.6 3.6 0 0 1 -2.9 6.2A418.6 418.6 0 0 0 362.1 74c-129.4 0-222.4 53.5-222.4 155.4 0 109 92.1 145.9 176.8 178.7 33.6 13 65.4 25.4 87 41.6a3.6 3.6 0 0 1 0 5.7zM503 233.1a3.6 3.6 0 0 0 -1.3-2.4c-51.8-43-93.6-60.5-144.5-60.5-84.1 0-80.3 52.2-80.3 53.6 0 42.6 52.1 62 112.3 84.5 31.1 11.6 63.2 23.6 92.7 39.9a3.6 3.6 0 0 0 5-1.8A249 249 0 0 0 503 233.1z"/></svg>